<svg width="25" height="25" viewBox="0 0 25 25" fill="none" xmlns="http://www.w3.org/2000/svg">
<path d="M5.35012 8.92778C2.67573 9.97852 1.60822 11.2204 0.750122 14.55M9.94973 18.1278C7.27533 19.1785 6.20783 20.4204 5.34973 23.75M19.1499 8.92778C21.8243 9.97852 22.8918 11.2204 23.7499 14.55M13.5268 18.1278C16.2012 19.1785 17.2687 20.4204 18.1268 23.75M11.4832 5.35C11.4832 7.89051 9.42371 9.95 6.8832 9.95C4.34269 9.95 2.2832 7.89051 2.2832 5.35C2.2832 2.80949 4.34269 0.75 6.8832 0.75C9.42371 0.75 11.4832 2.80949 11.4832 5.35ZM21.7059 5.35C21.7059 7.89051 19.6464 9.95 17.1059 9.95C14.5653 9.95 12.5059 7.89051 12.5059 5.35C12.5059 2.80949 14.5653 0.75 17.1059 0.75C19.6464 0.75 21.7059 2.80949 21.7059 5.35ZM16.5945 14.55C16.5945 17.0905 14.535 19.15 11.9945 19.15C9.45401 19.15 7.39452 17.0905 7.39452 14.55C7.39452 12.0095 9.45401 9.95 11.9945 9.95C14.535 9.95 16.5945 12.0095 16.5945 14.55Z" stroke="#878787" stroke-width="1.5" stroke-linecap="round"/>
</svg>
