<svg width="23" height="20" viewBox="0 0 23 20" fill="none" xmlns="http://www.w3.org/2000/svg">
<path d="M6.28613 0.5C7.79216 0.500177 9.22614 1.45804 10.3086 3.1543C11.3874 4.84486 12.0712 7.21048 12.0713 9.84961C12.0713 12.4889 11.3875 14.8552 10.3086 16.5459C9.22614 18.2421 7.79215 19.2 6.28613 19.2002C4.77995 19.2002 3.34525 18.2423 2.2627 16.5459C1.18383 14.8552 0.5 12.4889 0.5 9.84961C0.500068 7.21052 1.18393 4.84485 2.2627 3.1543C3.34525 1.45788 4.77995 0.5 6.28613 0.5Z" stroke="#1154ED"/>
<path d="M12.5703 4.21389C12.5703 4.21389 13.0941 1.05347 16.7608 1.05347C20.4275 1.05347 21.9989 5.9509 21.9989 10.008C21.9989 14.0651 20.4275 18.9626 16.7608 18.9626C13.0941 18.9626 12.5703 15.8021 12.5703 15.8021" stroke="#1154ED" stroke-linecap="round"/>
<path d="M21.9063 9.19094C21.6413 8.08751 21.1306 7.26229 19.8576 7.38684C18.5846 7.51138 17.7947 8.51421 17.8088 9.64198C17.8243 10.8874 18.9607 12.005 20.3698 11.8971C21.8069 11.7871 22.2047 10.4336 21.9063 9.19094Z" fill="#1154ED" stroke="#1154ED" stroke-linecap="round"/>
<path d="M11.4297 9.19094C11.1647 8.08751 10.654 7.26229 9.38106 7.38684C8.10807 7.51138 7.31814 8.51421 7.33222 9.64198C7.34776 10.8874 8.48416 12.005 9.89327 11.8971C11.3303 11.7871 11.7281 10.4336 11.4297 9.19094Z" fill="#1154ED" stroke="#1154ED" stroke-linecap="round"/>
</svg>
