<svg width="50" height="29" viewBox="0 0 50 29" fill="none" xmlns="http://www.w3.org/2000/svg">
<path d="M7.33993 22.4C6.58438 22.4 5.83623 22.2815 5.09549 22.0444C4.36956 21.8074 3.75475 21.437 3.25104 20.9333L4.2066 17.4667C4.51771 17.9407 4.9103 18.3259 5.38438 18.6222C5.87326 18.9037 6.42141 19.0444 7.02882 19.0444C7.73993 19.0444 8.33993 18.8074 8.82882 18.3333C9.33252 17.8444 9.58438 17.0222 9.58438 15.8667V2H13.3177V16.1333C13.3177 17.5704 13.0362 18.7556 12.4733 19.6889C11.9103 20.6074 11.1696 21.2889 10.251 21.7333C9.34734 22.1778 8.37697 22.4 7.33993 22.4ZM22.8837 22.3111C21.6689 22.3111 20.5578 22 19.5503 21.3778C18.5429 20.7407 17.7355 19.8963 17.1281 18.8444C16.5355 17.7778 16.2392 16.6074 16.2392 15.3333C16.2392 14.0593 16.5355 12.8963 17.1281 11.8444C17.7355 10.7778 18.5429 9.93333 19.5503 9.31111C20.5578 8.67407 21.6689 8.35556 22.8837 8.35556C23.7578 8.35556 24.5652 8.51111 25.3059 8.82222C26.0466 9.13333 26.6763 9.57037 27.1948 10.1333V8.66667H30.2392V22H27.1948V20.5333C26.6763 21.0815 26.0466 21.5185 25.3059 21.8444C24.5652 22.1556 23.7578 22.3111 22.8837 22.3111ZM23.3059 19.2222C24.017 19.2222 24.6541 19.0444 25.217 18.6889C25.7948 18.3333 26.2541 17.8667 26.5948 17.2889C26.9355 16.6963 27.1059 16.0444 27.1059 15.3333C27.1059 14.6222 26.9355 13.9778 26.5948 13.4C26.2541 12.8074 25.7948 12.3333 25.217 11.9778C24.6541 11.6222 24.0244 11.4444 23.3281 11.4444C22.617 11.4444 21.9726 11.6222 21.3948 11.9778C20.8318 12.3333 20.38 12.8074 20.0392 13.4C19.6985 13.9778 19.5281 14.6222 19.5281 15.3333C19.5281 16.0444 19.6985 16.6963 20.0392 17.2889C20.38 17.8667 20.8318 18.3333 21.3948 18.6889C21.9726 19.0444 22.6096 19.2222 23.3059 19.2222ZM33.1351 28.6667L37.5573 19.8222L32.0684 8.66667H35.9351L38.4017 13.7778C38.624 14.237 38.824 14.6667 39.0017 15.0667C39.1795 15.4667 39.3351 15.8815 39.4684 16.3111C39.6166 15.8815 39.7795 15.4667 39.9573 15.0667C40.1499 14.6667 40.3647 14.237 40.6017 13.7778L43.1128 8.66667H46.824L36.8906 28.6667H33.1351Z" fill="#1154ED"/>
<path d="M14 3L9 3" stroke="#1154ED" stroke-width="3" stroke-linecap="square"/>
</svg>
