<?xml version="1.0" encoding="UTF-8"?>
<svg xmlns="http://www.w3.org/2000/svg" xmlns:xlink="http://www.w3.org/1999/xlink" width="1200px" height="630px" viewBox="0 0 1200 630" version="1.1">
<g id="surface1">
<path style=" stroke:none;fill-rule:nonzero;fill:rgb(6.666667%,32.941177%,92.941177%);fill-opacity:1;" d="M 176.160156 486.621094 C 158.023438 486.621094 140.070312 484.046875 122.292969 478.894531 C 104.871094 473.746094 90.113281 465.699219 78.023438 454.757812 L 100.957031 379.449219 C 108.425781 389.746094 117.847656 398.113281 129.226562 404.550781 C 140.957031 410.667969 154.113281 413.722656 168.691406 413.722656 C 185.757812 413.722656 200.160156 408.574219 211.890625 398.273438 C 223.980469 387.652344 230.023438 369.792969 230.023438 344.691406 L 230.023438 43.449219 L 319.625 43.449219 L 319.625 350.480469 C 319.625 381.703125 312.867188 407.449219 299.359375 427.722656 C 285.847656 447.679688 268.070312 462.484375 246.023438 472.136719 C 224.335938 481.792969 201.046875 486.621094 176.160156 486.621094 Z M 549.207031 484.6875 C 520.054688 484.6875 493.386719 477.929688 469.207031 464.414062 C 445.03125 450.574219 425.652344 432.230469 411.074219 409.378906 C 396.851562 386.207031 389.742188 360.78125 389.742188 333.101562 C 389.742188 305.425781 396.851562 280.160156 411.074219 257.308594 C 425.652344 234.136719 445.03125 215.792969 469.207031 202.277344 C 493.386719 188.4375 520.054688 181.515625 549.207031 181.515625 C 570.1875 181.515625 589.566406 184.898438 607.339844 191.65625 C 625.117188 198.414062 640.230469 207.90625 652.675781 220.136719 L 652.675781 188.277344 L 725.742188 188.277344 L 725.742188 477.929688 L 652.675781 477.929688 L 652.675781 446.066406 C 640.230469 457.976562 625.117188 467.472656 607.339844 474.550781 C 589.566406 481.3125 570.1875 484.6875 549.207031 484.6875 Z M 559.339844 417.585938 C 576.40625 417.585938 591.699219 413.722656 605.207031 406 C 619.074219 398.273438 630.097656 388.136719 638.273438 375.585938 C 646.453125 362.710938 650.542969 348.550781 650.542969 333.101562 C 650.542969 317.65625 646.453125 303.65625 638.273438 291.101562 C 630.097656 278.230469 619.074219 267.929688 605.207031 260.207031 C 591.699219 252.480469 576.585938 248.621094 559.875 248.621094 C 542.808594 248.621094 527.34375 252.480469 513.476562 260.207031 C 499.964844 267.929688 489.121094 278.230469 480.941406 291.101562 C 472.765625 303.65625 468.675781 317.65625 468.675781 333.101562 C 468.675781 348.550781 472.765625 362.710938 480.941406 375.585938 C 489.121094 388.136719 499.964844 398.273438 513.476562 406 C 527.34375 413.722656 542.628906 417.585938 559.339844 417.585938 Z M 795.242188 622.757812 L 901.375 430.621094 L 769.640625 188.277344 L 862.441406 188.277344 L 921.640625 299.3125 C 926.976562 309.285156 931.777344 318.621094 936.039062 327.3125 C 940.308594 336 944.042969 345.011719 947.242188 354.34375 C 950.796875 345.011719 954.707031 336 958.976562 327.3125 C 963.597656 318.621094 968.753906 309.285156 974.441406 299.3125 L 1034.707031 188.277344 L 1123.777344 188.277344 L 885.375 622.757812 Z M 795.242188 622.757812 "/>
<path style="fill:none;stroke-width:3;stroke-linecap:square;stroke-linejoin:miter;stroke:rgb(6.666667%,32.941177%,92.941177%);stroke-opacity:1;stroke-miterlimit:4;" d="M 14 2.999975 L 9 2.999975 " transform="matrix(24,0,0,21.724138,0,0)"/>
</g>
</svg>
