<svg width="24" height="24" viewBox="0 0 24 24" fill="none" xmlns="http://www.w3.org/2000/svg">
<path d="M18.7355 7.25C18.7355 10.8399 15.8253 13.75 12.2355 13.75C8.64564 13.75 5.73549 10.8399 5.73549 7.25C5.73549 3.66015 8.64564 0.75 12.2355 0.75C15.8253 0.75 18.7355 3.66015 18.7355 7.25Z" stroke="#878787" stroke-width="1.5" stroke-linecap="round"/>
<path d="M16.8284 14.071C13.5527 15.9644 11.4349 16.2193 7.64384 14.0275C7.35096 13.8582 6.99392 13.8376 6.69542 13.9968C5.4549 14.6583 2.18026 16.5699 1.27474 18.75C0.906812 19.6358 0.787562 20.9089 0.750847 21.7795C0.728049 22.32 1.1687 22.75 1.70972 22.75H22.0548C22.6728 22.75 23.1402 22.1955 23.0138 21.5906C22.8349 20.7343 22.5601 19.5785 22.2355 18.75C21.4865 16.8382 18.9776 14.8876 17.8852 14.1058C17.5731 13.8824 17.1607 13.8789 16.8284 14.071Z" stroke="#878787" stroke-width="1.5" stroke-linecap="round"/>
</svg>
