<svg width="25" height="25" viewBox="0 0 25 25" fill="none" xmlns="http://www.w3.org/2000/svg">
<path d="M7.75 6C7.33579 6 7 6.33579 7 6.75C7 7.16421 7.33579 7.5 7.75 7.5V6.75V6ZM9.75 9C9.33579 9 9 9.33579 9 9.75C9 10.1642 9.33579 10.5 9.75 10.5V9.75V9ZM8.87066 12.4506L9.40586 11.9251V11.9251L8.87066 12.4506ZM5.53178 9.04945L6.06698 8.52404V8.52404L5.53178 9.04945ZM7.75 6.75V7.5H15.75V6.75V6H7.75V6.75ZM9.75 9.75V10.5H15.75V9.75V9H9.75V9.75ZM2.75 9.25H3.5V4.75H2.75H2V9.25H2.75ZM3.75 3.75V4.5H17.75V3.75V3H3.75V3.75ZM18.75 4.75H18V12.75H18.75H19.5V4.75H18.75ZM17.75 3.75V4.5C17.8881 4.5 18 4.61193 18 4.75H18.75H19.5C19.5 3.7835 18.7165 3 17.75 3V3.75ZM2.75 4.75H3.5C3.5 4.61193 3.61193 4.5 3.75 4.5V3.75V3C2.7835 3 2 3.7835 2 4.75H2.75ZM5.75 3.25H6.5V1.75H5.75H5V3.25H5.75ZM6.75 0.75V1.5H20.75V0.75V0H6.75V0.75ZM21.75 1.75H21V10.75H21.75H22.5V1.75H21.75ZM20.75 0.75V1.5C20.8881 1.5 21 1.61193 21 1.75H21.75H22.5C22.5 0.783501 21.7165 0 20.75 0V0.75ZM5.75 1.75H6.5C6.5 1.61193 6.61193 1.5 6.75 1.5V0.75V0C5.7835 0 5 0.783502 5 1.75H5.75ZM12.25 15.75H11.5V20.75H12.25H13V15.75H12.25ZM14.75 18.25V17.5H9.75V18.25V19H14.75V18.25ZM0.75 9.75H0V22.75H0.75H1.5V9.75H0.75ZM1.75 23.75V24.5H22.75V23.75V23H1.75V23.75ZM23.75 22.75H24.5V11.25H23.75H23V22.75H23.75ZM22.75 10.25V9.5H21.9451V10.25V11H22.75V10.25ZM20.9451 11.25H20.1951V11.75H20.9451H21.6951V11.25H20.9451ZM19.9451 12.75V12H9.58427V12.75V13.5H19.9451V12.75ZM8.87066 12.4506L9.40586 11.9251L6.06698 8.52404L5.53178 9.04945L4.99658 9.57486L8.33546 12.976L8.87066 12.4506ZM4.81817 8.75V8H1.75V8.75V9.5H4.81817V8.75ZM5.53178 9.04945L6.06698 8.52404C5.73791 8.18884 5.2879 8 4.81817 8V8.75V9.5C4.88528 9.5 4.94956 9.52698 4.99658 9.57486L5.53178 9.04945ZM9.58427 12.75V12C9.51716 12 9.45287 11.973 9.40586 11.9251L8.87066 12.4506L8.33546 12.976C8.66453 13.3112 9.11454 13.5 9.58427 13.5V12.75ZM20.9451 11.75H20.1951C20.1951 11.8881 20.0832 12 19.9451 12V12.75V13.5C20.9116 13.5 21.6951 12.7165 21.6951 11.75H20.9451ZM21.9451 10.25V9.5C20.9786 9.5 20.1951 10.2835 20.1951 11.25H20.9451H21.6951C21.6951 11.1119 21.8071 11 21.9451 11V10.25ZM23.75 11.25H24.5C24.5 10.2835 23.7165 9.5 22.75 9.5V10.25V11C22.8881 11 23 11.1119 23 11.25H23.75ZM22.75 23.75V24.5C23.7165 24.5 24.5 23.7165 24.5 22.75H23.75H23C23 22.8881 22.8881 23 22.75 23V23.75ZM0.75 22.75H0C0 23.7165 0.783502 24.5 1.75 24.5V23.75V23C1.61193 23 1.5 22.8881 1.5 22.75H0.75ZM0.75 9.75H1.5C1.5 9.61193 1.61193 9.5 1.75 9.5V8.75V8C0.783501 8 0 8.7835 0 9.75H0.75Z" fill="#878787"/>
</svg>
