<svg width="16" height="10" viewBox="0 0 16 10" fill="none" xmlns="http://www.w3.org/2000/svg">
<path d="M0.75 2.75C0.75 2.75 3.86111 0.75 7.75 0.75C11.6389 0.75 14.75 2.75 14.75 2.75M0.75 6.75C0.75 6.75 3.86111 8.75 7.75 8.75C11.6389 8.75 14.75 6.75 14.75 6.75M10.75 4.75C10.75 6.40685 9.40685 7.75 7.75 7.75C6.09315 7.75 4.75 6.40685 4.75 4.75C4.75 3.09315 6.09315 1.75 7.75 1.75C9.40685 1.75 10.75 3.09315 10.75 4.75ZM9.45 4.1C9.45 4.2933 9.2933 4.45 9.1 4.45C8.9067 4.45 8.75 4.2933 8.75 4.1C8.75 3.9067 8.9067 3.75 9.1 3.75C9.2933 3.75 9.45 3.9067 9.45 4.1Z" stroke="#B3B3B3" stroke-width="1.5" stroke-linecap="round"/>
</svg>
