<svg width="83" height="51" viewBox="0 0 83 51" fill="none" xmlns="http://www.w3.org/2000/svg">
<path d="M8.38737 38.75C6.9707 38.75 5.56793 38.5278 4.17904 38.0833C2.81793 37.6389 1.66515 36.9444 0.720703 36L2.51237 29.5C3.0957 30.3889 3.83181 31.1111 4.7207 31.6667C5.63737 32.1944 6.66515 32.4583 7.80404 32.4583C9.13737 32.4583 10.2624 32.0139 11.179 31.125C12.1235 30.2083 12.5957 28.6667 12.5957 26.5V0.5H19.5957V27C19.5957 29.6944 19.0679 31.9167 18.0124 33.6667C16.9568 35.3889 15.5679 36.6667 13.8457 37.5C12.1513 38.3333 10.3318 38.75 8.38737 38.75ZM37.5319 38.5833C35.2541 38.5833 33.1708 38 31.2819 36.8333C29.393 35.6389 27.8791 34.0556 26.7402 32.0833C25.6291 30.0833 25.0736 27.8889 25.0736 25.5C25.0736 23.1111 25.6291 20.9306 26.7402 18.9583C27.8791 16.9583 29.393 15.375 31.2819 14.2083C33.1708 13.0139 35.2541 12.4167 37.5319 12.4167C39.1708 12.4167 40.6847 12.7083 42.0736 13.2917C43.4625 13.875 44.643 14.6944 45.6152 15.75V13H51.3236V38H45.6152V35.25C44.643 36.2778 43.4625 37.0972 42.0736 37.7083C40.6847 38.2917 39.1708 38.5833 37.5319 38.5833ZM38.3236 32.7917C39.6569 32.7917 40.8513 32.4583 41.9069 31.7917C42.9902 31.125 43.8513 30.25 44.4902 29.1667C45.1291 28.0556 45.4486 26.8333 45.4486 25.5C45.4486 24.1667 45.1291 22.9583 44.4902 21.875C43.8513 20.7639 42.9902 19.875 41.9069 19.2083C40.8513 18.5417 39.6708 18.2083 38.3652 18.2083C37.0319 18.2083 35.8236 18.5417 34.7402 19.2083C33.6847 19.875 32.8375 20.7639 32.1986 21.875C31.5597 22.9583 31.2402 24.1667 31.2402 25.5C31.2402 26.8333 31.5597 28.0556 32.1986 29.1667C32.8375 30.25 33.6847 31.125 34.7402 31.7917C35.8236 32.4583 37.018 32.7917 38.3236 32.7917ZM56.7533 50.5L65.0449 33.9167L54.7533 13H62.0033L66.6283 22.5833C67.0449 23.4444 67.4199 24.25 67.7533 25C68.0866 25.75 68.3783 26.5278 68.6283 27.3333C68.906 26.5278 69.2116 25.75 69.5449 25C69.906 24.25 70.3088 23.4444 70.7533 22.5833L75.4616 13H82.4199L63.7949 50.5H56.7533Z" fill="#828282"/>
<path d="M22 3L11 3" stroke="#828282" stroke-width="6" stroke-linecap="square"/>
</svg>
